<?xml version="1.0" standalone="no"?><!DOCTYPE svg PUBLIC "-//W3C//DTD SVG 1.1//EN" "http://www.w3.org/Graphics/SVG/1.1/DTD/svg11.dtd"><svg t="1648776311374" class="icon" viewBox="0 0 1024 1024" version="1.1" xmlns="http://www.w3.org/2000/svg" p-id="673" xmlns:xlink="http://www.w3.org/1999/xlink" width="200" height="200"><defs><style type="text/css">@font-face { font-family: feedback-iconfont; src: url("//at.alicdn.com/t/font_1031158_u69w8yhxdu.woff2?t=1630033759944") format("woff2"), url("//at.alicdn.com/t/font_1031158_u69w8yhxdu.woff?t=1630033759944") format("woff"), url("//at.alicdn.com/t/font_1031158_u69w8yhxdu.ttf?t=1630033759944") format("truetype"); }
</style></defs><path d="M512 0a512 512 0 1 1-512 512 512 512 0 0 1 512-512z m0 960a448 448 0 1 0-448-448A448 448 0 0 0 512 960z m73.376-662.72a32.064 32.064 0 0 1 45.248 45.44L461.248 512 630.624 681.28a32.064 32.064 0 0 1-45.248 45.44l-192-192a32.224 32.224 0 0 1 0-45.44z" p-id="674"></path></svg>