<?xml version="1.0" standalone="no"?><!DOCTYPE svg PUBLIC "-//W3C//DTD SVG 1.1//EN" "http://www.w3.org/Graphics/SVG/1.1/DTD/svg11.dtd"><svg t="1648416135597" class="icon" viewBox="0 0 1024 1024" version="1.1" xmlns="http://www.w3.org/2000/svg" p-id="22990" xmlns:xlink="http://www.w3.org/1999/xlink" width="200" height="200"><defs><style type="text/css">@font-face { font-family: feedback-iconfont; src: url("//at.alicdn.com/t/font_1031158_u69w8yhxdu.woff2?t=1630033759944") format("woff2"), url("//at.alicdn.com/t/font_1031158_u69w8yhxdu.woff?t=1630033759944") format("woff"), url("//at.alicdn.com/t/font_1031158_u69w8yhxdu.ttf?t=1630033759944") format("truetype"); }
</style></defs><path d="M932.745578 200.620408L844.277551 21.594558C836.614966 5.572789 817.110204-0.696599 801.088435 6.965986L622.062585 95.434014c-16.021769 7.662585-22.291156 27.167347-14.628571 43.189115 7.662585 16.021769 27.167347 22.291156 43.189115 14.628572l110.062585-54.334694C645.746939 394.971429 271.673469 573.997279 114.242177 610.917007c-17.414966 4.179592-27.863946 21.594558-24.380953 39.009524 3.482993 14.628571 16.718367 25.077551 31.346939 25.077551 2.786395 0 4.87619 0 7.662585-0.696599 175.542857-41.09932 568.42449-229.180952 692.419048-553.795918l53.638095 109.365986c5.572789 11.145578 16.718367 18.111565 29.257143 18.111565 4.87619 0 9.752381-1.393197 13.931973-3.482994 16.021769-8.359184 22.291156-27.863946 14.628571-43.885714z" fill="#21D3AC" p-id="22991"></path><path d="M932.745578 200.620408L844.277551 21.594558C836.614966 5.572789 817.110204-0.696599 801.088435 6.965986L622.062585 95.434014c-16.021769 7.662585-22.291156 27.167347-14.628571 43.189115 7.662585 16.021769 27.167347 22.291156 43.189115 14.628572l110.062585-54.334694C645.746939 394.971429 271.673469 573.997279 114.242177 610.917007c-17.414966 4.179592-27.863946 21.594558-24.380953 39.009524 3.482993 14.628571 16.718367 25.077551 31.346939 25.077551 2.786395 0 4.87619 0 7.662585-0.696599 175.542857-41.09932 568.42449-229.180952 692.419048-553.795918l53.638095 109.365986c5.572789 11.145578 16.718367 18.111565 29.257143 18.111565 4.87619 0 9.752381-1.393197 13.931973-3.482994 16.021769-8.359184 22.291156-27.863946 14.628571-43.885714z" fill="#21D3AC" p-id="22992"></path><path d="M254.258503 1019.12381H117.028571c-13.235374 0-23.684354-10.44898-23.684353-23.684354v-151.858504c0-13.235374 10.44898-23.684354 23.684353-23.684353h137.229932c13.235374 0 23.684354 10.44898 23.684354 23.684353v151.858504c-0.696599 13.235374-11.145578 23.684354-23.684354 23.684354zM557.97551 1019.12381H420.745578c-13.235374 0-23.684354-10.44898-23.684354-23.684354V666.644898c0-13.235374 10.44898-23.684354 23.684354-23.684354h137.229932c13.235374 0 23.684354 10.44898 23.684354 23.684354v328.794558c-0.696599 13.235374-11.145578 23.684354-23.684354 23.684354zM861.692517 1019.12381H724.462585c-13.235374 0-23.684354-10.44898-23.684354-23.684354v-571.210885c0-13.235374 10.44898-23.684354 23.684354-23.684353h137.229932c13.235374 0 23.684354 10.44898 23.684354 23.684353v571.210885c-0.696599 13.235374-11.145578 23.684354-23.684354 23.684354z" fill="#4988FD" p-id="22993"></path></svg>